<svg viewBox="0 0 116 134" fill="none" xmlns="http://www.w3.org/2000/svg">
<rect width="90.3428" height="116.594" rx="15" transform="matrix(0.99482 -0.101648 0.124304 0.992244 0 16)" fill="url(#paint0_linear_17_3)" fill-opacity="0.87"/>
<path d="M82.344 1.31223C88.3821 0.642644 93.9405 4.9798 94.7589 10.9996L107.491 104.644C108.309 110.664 104.078 116.086 98.04 116.756L30.629 124.231C24.5909 124.901 19.0325 120.564 18.214 114.544L5.48196 20.8998C4.6635 14.88 8.89487 9.45727 14.933 8.78768L82.344 1.31223Z" fill="url(#paint1_linear_17_3)"/>
<g filter="url(#filter0_d_17_3)">
<path d="M77.7474 7.70904C83.2366 7.10032 88.2896 11.0432 89.0337 16.5157L100.537 101.122C101.281 106.594 97.4343 111.524 91.9451 112.133L36.1368 118.322C30.6476 118.931 25.5946 114.988 24.8505 109.515L13.3472 24.9088C12.6032 19.4363 16.4499 14.5065 21.9391 13.8978L77.7474 7.70904Z" fill="white"/>
</g>
<path d="M63.9205 51.4248C63.4641 49.3324 62.446 47.7737 60.8664 46.7487C59.308 45.7214 57.0993 45.3662 54.2404 45.6833C52.4192 45.8852 50.9564 46.2725 49.8519 46.845C48.7658 47.3941 47.9976 48.0686 47.5475 48.8686C47.0973 49.6686 46.9263 50.5448 47.0343 51.4972C47.0981 52.2831 47.3319 52.9751 47.7357 53.5732C48.1578 54.1479 48.7633 54.6487 49.5522 55.0756C50.3382 55.4813 51.3197 55.8225 52.4966 56.0992C53.6736 56.3759 55.0565 56.5868 56.6455 56.7321L62.1371 57.2804C65.8405 57.6412 69.0581 58.3024 71.7899 59.2638C74.5217 60.2253 76.8177 61.4602 78.678 62.9683C80.5354 64.4554 81.9874 66.2017 83.0339 68.2073C84.1016 70.2106 84.814 72.4461 85.171 74.914C85.7297 79.181 85.1511 82.9099 83.4353 86.1005C81.7195 89.2911 78.9969 91.8754 75.2675 93.8534C71.5593 95.8291 66.9522 97.1222 61.4462 97.7328C55.7919 98.3598 50.7443 98.073 46.3033 96.8725C41.8835 95.6696 38.2734 93.466 35.4732 90.2619C32.6913 87.0343 30.9209 82.7087 30.162 77.2851L46.9341 75.4252C47.3099 77.398 48.0343 79.0108 49.1074 80.2633C50.1806 81.5159 51.5693 82.4013 53.2734 82.9195C54.9988 83.4354 56.9838 83.5689 59.2286 83.32C61.1134 83.111 62.6595 82.7038 63.8669 82.0984C65.0744 81.493 65.9504 80.7422 66.495 79.846C67.0395 78.9498 67.2506 77.9728 67.1282 76.9148C66.9721 75.9248 66.5262 75.0956 65.7904 74.4271C65.073 73.7352 63.9646 73.1723 62.4654 72.7385C60.9633 72.2836 58.9692 71.9261 56.4833 71.666L49.8137 70.9912C43.8842 70.3843 39.059 68.8084 35.338 66.2636C31.6354 63.6953 29.4503 59.8764 28.7825 54.8071C28.2016 50.6925 28.8134 46.9707 30.6179 43.6417C32.4407 40.2892 35.2144 37.5277 38.9391 35.3574C42.685 33.1846 47.131 31.8129 52.277 31.2423C57.5289 30.6599 62.1905 31.0323 66.2618 32.3596C70.3331 33.6869 73.6231 35.8295 76.1319 38.7873C78.659 41.7217 80.2216 45.3095 80.8198 49.5508L63.9205 51.4248Z" fill="#C27100"/>
<path d="M62.9205 48.4248C62.4641 46.3324 61.446 44.7737 59.8664 43.7487C58.308 42.7214 56.0993 42.3662 53.2404 42.6833C51.4192 42.8852 49.9564 43.2725 48.8519 43.845C47.7658 44.3941 46.9976 45.0686 46.5475 45.8686C46.0973 46.6686 45.9263 47.5448 46.0343 48.4972C46.0981 49.2831 46.3319 49.9751 46.7357 50.5732C47.1578 51.1479 47.7633 51.6487 48.5522 52.0756C49.3382 52.4813 50.3197 52.8225 51.4966 53.0992C52.6736 53.3759 54.0565 53.5868 55.6455 53.7321L61.1371 54.2804C64.8405 54.6412 68.0581 55.3024 70.7899 56.2638C73.5217 57.2253 75.8177 58.4602 77.678 59.9683C79.5354 61.4554 80.9874 63.2017 82.0339 65.2073C83.1016 67.2106 83.814 69.4461 84.171 71.914C84.7297 76.181 84.1511 79.9099 82.4353 83.1005C80.7195 86.2911 77.9969 88.8754 74.2675 90.8534C70.5593 92.8291 65.9522 94.1222 60.4462 94.7328C54.7919 95.3598 49.7443 95.073 45.3033 93.8725C40.8835 92.6696 37.2734 90.466 34.4732 87.2619C31.6913 84.0343 29.9209 79.7087 29.162 74.2851L45.9341 72.4252C46.3099 74.398 47.0343 76.0108 48.1074 77.2633C49.1806 78.5159 50.5693 79.4013 52.2734 79.9195C53.9988 80.4354 55.9838 80.5689 58.2286 80.32C60.1134 80.111 61.6595 79.7038 62.8669 79.0984C64.0744 78.493 64.9504 77.7422 65.495 76.846C66.0395 75.9498 66.2506 74.9728 66.1282 73.9148C65.9721 72.9248 65.5262 72.0956 64.7904 71.4271C64.073 70.7352 62.9646 70.1723 61.4654 69.7385C59.9633 69.2836 57.9692 68.9261 55.4833 68.666L48.8137 67.9912C42.8842 67.3843 38.059 65.8084 34.338 63.2636C30.6354 60.6953 28.4503 56.8764 27.7825 51.8071C27.2016 47.6925 27.8134 43.9707 29.6179 40.6417C31.4407 37.2892 34.2144 34.5277 37.9391 32.3574C41.685 30.1846 46.131 28.8129 51.277 28.2423C56.5289 27.6599 61.1905 28.0323 65.2618 29.3596C69.3331 30.6869 72.6231 32.8295 75.1319 35.7873C77.659 38.7217 79.2216 42.3095 79.8198 46.5508L62.9205 48.4248Z" fill="url(#paint2_linear_17_3)"/>
<defs>
<filter id="filter0_d_17_3" x="8.25515" y="2.64705" width="107.374" height="130.737" filterUnits="userSpaceOnUse" color-interpolation-filters="sRGB">
<feFlood flood-opacity="0" result="BackgroundImageFix"/>
<feColorMatrix in="SourceAlpha" type="matrix" values="0 0 0 0 0 0 0 0 0 0 0 0 0 0 0 0 0 0 127 0" result="hardAlpha"/>
<feOffset dx="5" dy="5"/>
<feGaussianBlur stdDeviation="5"/>
<feComposite in2="hardAlpha" operator="out"/>
<feColorMatrix type="matrix" values="0 0 0 0 0 0 0 0 0 0 0 0 0 0 0 0 0 0 0.25 0"/>
<feBlend mode="normal" in2="BackgroundImageFix" result="effect1_dropShadow_17_3"/>
<feBlend mode="normal" in="SourceGraphic" in2="effect1_dropShadow_17_3" result="shape"/>
</filter>
<linearGradient id="paint0_linear_17_3" x1="-6.02609" y1="-5.10659" x2="106.676" y2="105.136" gradientUnits="userSpaceOnUse">
<stop stop-color="#08528E"/>
<stop offset="1" stop-color="#430762"/>
</linearGradient>
<linearGradient id="paint1_linear_17_3" x1="-10.3867" y1="-2.49316" x2="128.674" y2="137.528" gradientUnits="userSpaceOnUse">
<stop stop-color="#0DB2FF"/>
<stop offset="1" stop-color="#D500FF"/>
</linearGradient>
<linearGradient id="paint2_linear_17_3" x1="10.8378" y1="17.2184" x2="74.9941" y2="92.0708" gradientUnits="userSpaceOnUse">
<stop stop-color="#0DB2FF"/>
<stop offset="1" stop-color="#FFB236"/>
</linearGradient>
</defs>
</svg>
