<svg viewBox="0 0 116 147" fill="none" xmlns="http://www.w3.org/2000/svg">
<rect width="90.3428" height="116.594" rx="15" transform="matrix(0.99482 -0.101648 0.124304 0.992244 0 28.9002)" fill="url(#paint0_linear_25_7)" fill-opacity="0.87"/>
<path d="M82.344 14.2124C88.3821 13.5429 93.9405 17.88 94.7589 23.8998L107.491 117.544C108.309 123.564 104.078 128.987 98.04 129.656L30.629 137.132C24.5909 137.801 19.0325 133.464 18.214 127.444L5.48196 33.8C4.6635 27.7803 8.89487 22.3575 14.933 21.6879L82.344 14.2124Z" fill="url(#paint1_linear_25_7)"/>
<g filter="url(#filter0_d_25_7)">
<path d="M77.7474 20.6092C83.2366 20.0005 88.2896 23.9434 89.0337 29.4159L100.537 114.022C101.281 119.495 97.4343 124.425 91.9451 125.033L36.1368 131.222C30.6476 131.831 25.5946 127.888 24.8505 122.415L13.3472 37.809C12.6032 32.3365 16.4499 27.4067 21.9391 26.798L77.7474 20.6092Z" fill="white"/>
</g>
<path d="M79.864 52.3086C80.0994 53.8372 80.0702 54.6633 79.7762 54.7869L78.0051 63.8622L77.4588 66.4111C76.0196 73.8314 75.2092 79.7463 75.0277 84.156C76.6277 88.4478 79.004 93.7155 82.1565 99.959C84.7267 104.962 86.6971 109.119 88.0676 112.428C86.4272 112.446 85.2249 112.514 84.4606 112.632L81.709 113.056L78.8605 113.612C73.0516 114.507 69.7415 114.86 68.9301 114.672L67.6951 112.75L66.284 112.732C65.2724 111.245 64.199 109.102 63.0638 106.303C62.8285 105.792 62.1903 104.443 61.1493 102.256L60.7795 105.951C60.5863 110.284 59.9695 113.9 58.9294 116.799L54.2288 117.523L49.8898 118.309L49.0873 118.432C47.0236 118.75 45.3303 118.933 44.0075 118.98C42.6963 119.104 41.3881 118.992 40.0828 118.646L40.1795 116.988C39.2506 117.052 38.3363 116.959 37.4367 116.706C37.6125 113.784 38.3936 108.695 39.7799 101.439C39.9973 100.31 40.3732 98.1789 40.9077 95.045C41.4422 91.9111 41.8386 89.1506 42.0969 86.7635C40.8145 83.5182 39.347 80.3405 37.6943 77.2306C36.1063 74.0324 33.9066 69.9112 31.0953 64.867L27.5489 58.6059C30.6355 57.8175 33.7839 57.1761 36.994 56.6817C43.6436 55.6575 47.3212 55.404 48.0269 55.9213C48.3092 56.7385 48.5827 57.2441 48.8473 57.4381C49.1884 57.6203 49.5176 57.726 49.8351 57.7554C50.2173 57.6965 50.4966 57.7317 50.673 57.8611C52.5318 62.8172 54.0758 66.4916 55.3051 68.8844L56.8811 53.9707C60.1206 53.1587 66.8995 51.9581 77.2178 50.3688C77.4297 51.7446 77.4328 52.5266 77.2271 52.7148L79.864 52.3086ZM71.0888 52.4865C63.7513 53.6167 59.3741 54.4082 57.9572 54.8612C57.6694 56.5487 57.3348 59.4562 56.9533 63.5837C56.437 69.3751 55.9438 73.2851 55.4738 75.3137C54.0563 72.7151 51.9889 68.1824 49.2714 61.7153L47.0833 56.6534C46.8423 56.6123 46.3337 56.6124 45.5576 56.6537C44.8579 56.6832 44.0113 56.7745 43.0177 56.9276L37.1706 57.8281C35.2598 58.1225 32.6024 58.6491 29.1982 59.4082C30.0451 60.8427 30.7979 62.1742 31.4567 63.403C34.1973 67.9885 36.5175 72.1303 38.4173 75.8282C40.3817 79.4378 41.9904 83.0241 43.2433 86.5869C42.809 90.879 41.978 96.4059 40.7504 103.168C39.5756 109.765 38.8943 113.977 38.7065 115.806C39.9236 116.088 41.5258 116.076 43.513 115.77C45.5767 115.452 46.7614 115.27 47.0671 115.223L48.6722 114.975L53.8137 114.066L55.4188 113.819C56.0534 111.843 56.5761 108.633 56.9869 104.188C57.0456 103.553 57.1835 102.162 57.4007 100.016C57.6943 97.8584 58.0996 95.9181 58.6167 94.1953L58.6344 94.3099C59.5577 95.7326 60.4458 97.4346 61.2987 99.4158C62.1398 101.321 62.6339 102.496 62.781 102.943C64.5103 107.059 65.8925 109.936 66.9276 111.577L67.0422 111.559C67.5361 111.718 69.9232 111.467 74.2034 110.808L76.0377 110.526L81.6378 109.546L82.6697 109.387C83.2047 109.304 83.5545 109.29 83.7192 109.342C82.9663 107.502 81.9752 105.386 80.7459 102.993C79.5814 100.512 78.7697 98.7984 78.3109 97.8518C75.0466 91.3908 72.688 86.2378 71.2351 82.3928C71.311 79.3296 71.5898 76.3133 72.0714 73.344C72.5412 70.2984 73.249 66.5118 74.1948 61.9844C74.4122 60.8555 74.703 59.4414 75.0672 57.7421C75.4314 56.0429 75.7927 54.0702 76.1509 51.8242L76.2479 51.6919L71.0888 52.4865Z" fill="url(#paint2_linear_25_7)"/>
<path d="M31.2396 39.4931C31.2802 39.5553 31.2994 39.6255 31.2973 39.7037C31.2952 39.782 31.2335 39.9228 31.1121 40.1262C30.9908 40.3296 30.9263 40.5432 30.9187 40.7669C30.9209 40.9783 30.9357 41.1549 30.9632 41.2965C30.9894 41.4272 31.0028 41.5426 31.0032 41.6429C31.0201 41.886 30.9072 42.0662 30.6645 42.1833C30.4548 42.2967 30.2837 42.3109 30.1514 42.2259C30.019 42.1409 29.9054 42.0259 29.8107 41.8808C29.7147 41.7248 29.6384 41.5944 29.5817 41.4895C29.5347 41.3724 29.4666 41.3134 29.3774 41.3125C29.2197 41.2973 29.1006 41.3278 29.0203 41.4039C28.951 41.4788 28.8968 41.5407 28.8579 41.5898C28.7801 41.6879 28.6937 41.7592 28.5985 41.8036C28.5144 41.8467 28.4467 41.888 28.3956 41.9273C28.2945 42.017 28.2651 42.1485 28.3074 42.3219C28.3908 42.6576 28.8298 43.1305 29.6244 43.7407C29.7716 43.8574 29.942 43.9825 30.1357 44.1161C30.3404 44.2485 30.5421 44.4034 30.7409 44.581C31.1913 45.0081 31.4728 45.5159 31.5853 46.1046C31.6991 46.7042 31.6721 47.2421 31.5043 47.7183C31.3703 48.1014 31.1887 48.3619 30.9595 48.4998C30.784 48.6203 30.6728 48.7669 30.6259 48.9394C30.5777 49.1009 30.5416 49.2221 30.5175 49.3029C30.4921 49.3726 30.427 49.4359 30.3221 49.4926C30.2295 49.559 30.1166 49.5943 29.9834 49.5985C29.8502 49.6028 29.7206 49.5899 29.5946 49.5599C29.4808 49.5396 29.3713 49.5077 29.266 49.4641C29.173 49.4303 29.0928 49.4117 29.0256 49.4083C28.9693 49.4037 28.9169 49.432 28.8683 49.4933C28.8184 49.5437 28.7691 49.5995 28.7205 49.6608C28.5746 49.8448 28.4332 49.9224 28.2962 49.8937C28.1604 49.8759 27.9995 49.8332 27.8134 49.7656C27.6274 49.6979 27.4443 49.6077 27.2641 49.4948C26.6171 49.1016 26.3591 48.6523 26.4901 48.1469C26.5742 47.8141 26.6801 47.5735 26.8078 47.4251C26.9465 47.2753 27.0598 47.1954 27.1478 47.1853C27.2907 47.1687 27.3905 47.2129 27.4472 47.3178C27.5136 47.4104 27.5677 47.4933 27.6096 47.5664C27.6502 47.6286 27.695 47.6791 27.7441 47.718C27.7932 47.7569 27.8642 47.7933 27.9572 47.8271C28.0613 47.8596 28.1689 47.8751 28.2801 47.8734C28.5575 47.8636 28.7537 47.7295 28.8687 47.4711C28.9837 47.2128 29.0082 46.9425 28.9422 46.6605C28.8056 46.1526 28.6702 45.9454 28.5362 46.0389C28.4241 46.1298 28.2763 46.1525 28.0928 46.1068C27.908 46.0502 27.8037 45.9675 27.7801 45.8588C27.7551 45.7392 27.7198 45.6263 27.6741 45.5201C27.6284 45.414 27.5779 45.314 27.5225 45.2201C27.3943 44.9787 27.2905 44.8514 27.211 44.8383C27.1205 44.8265 26.9983 44.8294 26.8443 44.8472C26.7014 44.8637 26.5312 44.7887 26.3337 44.6221C26.1349 44.4445 25.9805 44.2172 25.8706 43.9402C25.7593 43.6523 25.6641 43.407 25.585 43.2045C25.5047 42.9909 25.4355 42.8262 25.3776 42.7104C25.3196 42.5945 25.2665 42.4725 25.2183 42.3444C25.0601 41.9393 24.9924 41.4012 25.0152 40.7301C25.0367 40.3376 25.1189 39.9883 25.2618 39.6822C25.4034 39.365 25.5677 39.0508 25.7546 38.7395C26.1076 38.1305 26.4473 37.6958 26.7738 37.4353C27.1002 37.1747 27.367 37.1216 27.5743 37.276C27.7557 37.3999 27.9386 37.44 28.123 37.3964C28.3171 37.3406 28.4672 37.2898 28.5733 37.2441L28.8625 37.1439C29.0444 37.0783 29.2319 37.0622 29.4252 37.0956C29.6294 37.1277 29.8269 37.2943 30.0177 37.5954C30.1137 37.7514 30.2072 37.8855 30.2981 37.9975C30.4 38.1083 30.4958 38.2142 30.5855 38.3153C30.7809 38.5601 30.8997 38.7692 30.942 38.9426C30.994 39.1037 31.0465 39.2202 31.0994 39.2921C31.1632 39.3627 31.21 39.4297 31.2396 39.4931ZM38.7741 41.4974L38.63 40.3944C38.6106 40.1292 38.6158 39.9336 38.6458 39.8076C38.6758 39.6816 38.6894 39.5575 38.6864 39.4353C38.6931 39.3008 38.6944 39.167 38.6902 39.0337C38.6956 38.8883 38.7018 38.7483 38.7085 38.6138C38.7279 38.2996 38.7858 38.1258 38.8822 38.0924C38.9787 38.059 39.0252 37.9311 39.0218 37.7086C39.0348 37.3395 38.9902 37.0494 38.8878 36.8384C38.7694 36.5847 38.7514 36.3806 38.8338 36.2263C38.9877 35.9188 39.2905 35.8393 39.7422 35.9877C40.0652 36.084 40.2928 36.1246 40.4247 36.1094C40.5566 36.0941 40.6708 36.0698 40.7672 36.0364C40.8733 35.9907 41.0173 35.9351 41.1992 35.8695C41.3907 35.7917 41.5529 35.8454 41.6857 36.0306C41.8282 36.2035 41.8993 36.3847 41.8989 36.5742C41.9095 36.7624 41.9133 36.9402 41.9104 37.1076C41.9061 37.2641 41.9032 37.4316 41.9015 37.61C41.8754 38.0587 41.843 38.3577 41.8046 38.5069C41.7758 38.644 41.7594 38.7907 41.7551 38.9472C41.7497 39.0926 41.7454 39.2491 41.7425 39.4166C41.7544 39.9054 41.7449 40.2574 41.7141 40.4727C41.5514 41.5722 41.484 42.2429 41.5119 42.4847C41.5386 42.7156 41.5441 42.8598 41.5285 42.9173C41.5128 42.9749 41.4917 43.033 41.4651 43.0918C41.4384 43.1506 41.4027 43.2271 41.3579 43.3214C41.3118 43.4047 41.2659 43.5382 41.2203 43.7217C41.159 43.9627 41.1446 44.1761 41.1772 44.3617C41.2437 44.744 41.2505 45.044 41.1976 45.2618C41.1448 45.4796 41.0871 45.7035 41.0245 45.9336C40.9717 46.1513 40.9188 46.3691 40.866 46.5869C40.7324 47.0703 40.6589 47.4464 40.6454 47.7154C40.6319 47.9843 40.5668 48.1924 40.4501 48.3396C40.3457 48.4965 40.2188 48.5557 40.0695 48.5172C39.9312 48.4775 39.8357 48.4217 39.7828 48.3498C39.7409 48.2766 39.699 48.2035 39.6572 48.1303C39.5328 47.9219 39.3966 47.8039 39.2486 47.7764C39.0186 47.7139 38.8359 47.579 38.7005 47.3718C38.5749 47.1523 38.4827 46.8845 38.4239 46.5681C38.3761 46.2506 38.3266 45.9666 38.2754 45.7163C38.2242 45.4659 38.17 45.2382 38.1129 45.0331C37.9543 44.5278 37.82 44.2815 37.7101 44.2942C37.6441 44.3018 37.6016 44.368 37.5826 44.4928C37.5623 44.6065 37.5458 44.7533 37.5332 44.933C37.4913 45.4392 37.4208 45.7927 37.3214 45.9936C37.233 46.1932 37.1806 46.3664 37.1641 46.5131C37.1477 46.6598 37.1361 46.8004 37.1293 46.9349C37.1335 47.0681 37.1378 47.2013 37.142 47.3345C37.145 47.4567 37.1266 47.587 37.0869 47.7253C37.0582 47.8623 37.019 48.0061 36.9696 48.1566C36.9189 48.2962 36.8497 48.4211 36.7622 48.5315C36.5554 48.7671 36.2928 48.8086 35.9744 48.6559C35.7735 48.5566 35.5538 48.4872 35.3153 48.4479C35.0756 48.3976 34.9146 48.355 34.8326 48.3199C34.7493 48.2738 34.667 48.1886 34.5858 48.0643C34.5156 47.9387 34.4507 47.7623 34.391 47.5353C34.3411 47.2959 34.2764 47.0249 34.1969 46.7221C33.9633 45.8578 33.7275 45.1664 33.4894 44.648C33.2957 44.2247 33.0835 43.642 32.853 42.8999C32.6212 42.1468 32.4644 41.6579 32.3828 41.4334C32.3109 41.1966 32.2523 41.0752 32.2071 41.0693C32.1288 41.0672 32.0502 40.9649 31.9711 40.7623C31.8522 40.4084 31.7985 40.1361 31.8099 39.9453C31.8213 39.7546 31.8071 39.5836 31.7673 39.4322C31.7373 39.2685 31.6962 39.1062 31.6442 38.9451C31.5922 38.7839 31.5353 38.629 31.4735 38.4801C31.4228 38.33 31.3707 38.1689 31.3174 37.9968C31.1702 37.5904 31.2233 37.2779 31.4765 37.0593C31.8444 36.7717 32.1717 36.7116 32.4584 36.879C32.5692 36.7771 32.7354 36.769 32.957 36.8549C33.064 36.7199 33.201 36.6039 33.368 36.5066C33.546 36.408 33.7097 36.378 33.8589 36.4164C34.007 36.4439 34.1264 36.5137 34.2174 36.6257C34.307 36.7268 34.3834 36.8572 34.4464 37.0171C34.539 37.2403 34.6247 37.548 34.7034 37.94C34.7918 38.3197 34.8455 38.592 34.8646 38.757C34.8836 38.9219 34.9027 39.0868 34.9217 39.2517C34.9674 39.6475 35.0499 40.0725 35.1692 40.5267C35.2995 40.9795 35.3744 41.3386 35.3939 41.6037C35.4231 41.8566 35.455 42.0367 35.4897 42.1441C35.5232 42.2405 35.5553 42.326 35.5862 42.4004C35.6171 42.4748 35.6528 42.5431 35.6934 42.6052C35.7843 42.7173 35.8829 42.7505 35.989 42.7048C36.0512 42.6642 36.0784 42.6109 36.0708 42.5449C36.0619 42.468 36.0401 42.3758 36.0054 42.2684C35.9818 42.1597 35.9513 42.0407 35.9141 41.9113C35.8768 41.7819 35.8561 41.6506 35.8519 41.5174C35.8464 41.3732 35.8377 41.2015 35.8258 41.0023C35.8237 40.7909 35.8154 40.5746 35.801 40.3534C35.7836 39.7204 35.7816 39.2694 35.7951 39.0004C35.8074 38.7205 35.8162 38.5078 35.8217 38.3623C35.8259 38.2058 35.8344 38.0378 35.847 37.858C36.0174 37.6935 36.1375 37.4791 36.2073 37.2148C36.1569 37.1649 36.1292 37.118 36.1241 37.074L36.1844 36.5824C36.1814 36.4602 36.2243 36.3494 36.3131 36.25C36.4006 36.1396 36.4896 36.0903 36.5801 36.1022C36.6706 36.114 36.7398 36.1339 36.7875 36.1618C36.8353 36.1897 36.8863 36.2451 36.9404 36.328C37.0254 36.4853 37.095 36.7502 37.1492 37.1227C37.2144 37.494 37.2613 37.756 37.2901 37.9086C37.3299 38.06 37.3622 38.1955 37.3872 38.3152C37.4109 38.4239 37.4346 38.5326 37.4583 38.6412C37.4807 38.7389 37.5046 38.8977 37.53 39.1176C37.5541 39.3265 37.5728 39.536 37.5859 39.7462C37.599 39.9564 37.6671 40.1602 37.7902 40.3577C37.9133 40.5551 37.9848 40.6917 38.0046 40.7674C38.0233 40.8321 38.0315 40.9036 38.0294 40.9818C38.026 41.049 38.0191 41.1334 38.0085 41.2349C38.0077 41.3241 38.018 41.4622 38.0396 41.6491C38.079 41.9899 38.19 42.2278 38.3727 42.3627C38.6523 42.5643 38.796 42.4586 38.804 42.0455C38.807 41.878 38.797 41.6953 38.7741 41.4974ZM46.7167 38.207C46.3543 38.3491 46.3565 38.9951 46.7232 40.1449C46.837 40.4548 46.9066 40.7197 46.932 40.9396C46.9671 41.1473 46.9663 41.3813 46.9295 41.6418C46.8928 41.9023 46.8833 42.1095 46.901 42.2634C46.9188 42.4174 46.9178 42.6013 46.8979 42.8153C46.9356 43.0449 46.9574 43.2819 46.9633 43.5263C46.979 43.7585 46.994 43.9852 47.0084 44.2063C47.0377 44.7489 47.069 45.0684 47.1024 45.1648C47.1358 45.2612 47.1764 45.3233 47.2242 45.3512C47.2817 45.3669 47.3448 45.3819 47.4133 45.3963C47.5735 45.4335 47.6752 45.4941 47.7184 45.5783C47.7615 45.6624 47.7871 45.7876 47.7952 45.9538C47.813 46.1077 47.8155 46.2745 47.8028 46.4542C47.7521 46.8835 47.6458 47.1687 47.4839 47.31C47.3925 47.3874 47.2906 47.4214 47.1781 47.4121C47.0767 47.4016 46.9642 47.3923 46.8407 47.3843C46.4593 47.3615 46.1442 47.4313 45.8956 47.5937C45.2875 48.0204 44.7873 48.0782 44.3948 47.767C44.2354 47.6406 44.122 47.4308 44.0548 47.1378C43.9486 46.6041 43.936 46.2546 44.0172 46.0893C44.1094 45.9227 44.1866 45.819 44.2487 45.7784C44.3206 45.7256 44.3821 45.6795 44.4333 45.6401C44.5479 45.5712 44.5976 45.4708 44.5823 45.3388C44.5709 45.2399 44.5698 45.1342 44.5791 45.0217C44.5981 44.8969 44.611 44.7673 44.6178 44.6328C44.6359 44.3076 44.578 44.0469 44.4439 43.8507C44.295 43.6228 44.2172 43.4313 44.2104 43.2761C44.2146 43.1196 44.2152 42.9803 44.2123 42.8581L44.2325 42.4546C44.2177 42.1333 44.1811 41.8645 44.1227 41.6484C44.063 41.4214 44.0082 41.1882 43.9583 40.9488C43.9181 40.6972 43.8853 40.4615 43.8599 40.2416C43.8455 40.0204 43.8269 39.8109 43.804 39.613C43.7507 39.1512 43.6695 38.882 43.5604 38.8055C43.4623 38.7277 43.3747 38.6933 43.2978 38.7021C43.2195 38.7 43.1419 38.7034 43.065 38.7123C42.8586 38.7584 42.7229 38.7407 42.6577 38.6591C42.5228 38.5521 42.4446 38.4052 42.423 38.2183C42.4014 38.0314 42.4179 37.8846 42.4724 37.778C42.538 37.6702 42.5747 37.5545 42.5828 37.4311C42.5895 37.2966 42.5846 37.1579 42.5681 37.015C42.552 36.6826 42.5163 36.4694 42.4609 36.3756C42.4042 36.2707 42.3604 36.1811 42.3295 36.1066C42.3084 36.02 42.2934 35.9381 42.2845 35.8612C42.2476 35.5423 42.454 35.3514 42.9035 35.2883C43.1771 35.2456 43.4581 35.2187 43.7465 35.2077C44.0336 35.1857 44.2577 35.1486 44.4189 35.0966C44.9779 34.9206 45.4291 34.8239 45.7724 34.8066C46.1268 34.7879 46.3554 34.7894 46.4581 34.8109C46.7457 34.8891 46.929 35.1744 47.0082 35.6666C47.0458 35.8962 47.0793 36.1374 47.1085 36.3903C47.1377 36.6432 47.1785 36.9003 47.231 37.1616C47.3384 37.7063 47.167 38.0547 46.7167 38.207ZM51.3892 40.1742C51.4248 40.482 51.602 40.6175 51.9208 40.5807C51.9978 40.5718 52.0686 40.5581 52.1333 40.5395C52.1967 40.5098 52.3035 40.4697 52.4536 40.4189C52.6147 40.3669 52.767 40.3827 52.9103 40.4664C53.0634 40.5379 53.1755 40.5918 53.2465 40.6281C53.3286 40.6632 53.3948 40.7057 53.4451 40.7556C53.5335 40.8457 53.5881 41.0288 53.6088 41.3049C53.6393 41.5688 53.6129 41.8225 53.5296 42.0661C53.445 42.2987 53.2135 42.4647 52.8351 42.5641C52.4566 42.6635 52.1748 42.7796 51.9896 42.9124C51.8154 43.044 51.7209 43.2387 51.7061 43.4967C51.7023 43.7534 51.6787 43.9343 51.6351 44.0396C51.5916 44.1449 51.5713 44.2587 51.5742 44.3809C51.5772 44.5031 51.5595 44.6389 51.521 44.7882C51.4923 44.9252 51.4904 45.0535 51.5153 45.1732C51.5513 45.2916 51.5758 45.4559 51.589 45.666C51.6118 45.8639 51.6072 46.065 51.5751 46.2693C51.499 46.7683 51.2906 47.0374 50.9497 47.0768C50.8178 47.092 50.7057 47.0381 50.6135 46.9151C50.5311 46.7798 50.4515 46.6219 50.375 46.4413C50.3094 46.2595 50.2371 46.0673 50.158 45.8647C50.0899 45.6609 49.9772 45.4567 49.8198 45.252C49.6612 45.0364 49.5544 44.7869 49.4994 44.5036C49.4554 44.219 49.4175 43.9392 49.3858 43.6644L49.2944 42.8728C49.1826 41.9052 49.0028 41.3132 48.755 41.0967C48.5956 40.9703 48.5034 40.7024 48.4784 40.2931L48.425 39.8313C48.406 39.6664 48.4182 39.5313 48.4618 39.426C48.5607 39.1249 48.5473 38.7198 48.4217 38.2107C48.307 37.7003 48.2064 37.3108 48.1196 37.0423C48.0317 36.7628 47.995 36.494 48.0098 36.2361C48.0356 35.9769 48.0457 35.7751 48.0402 35.6309C48.0457 35.4855 48.0848 35.3417 48.1575 35.1996C48.2412 35.0562 48.3154 34.9752 48.3801 34.9566C48.4545 34.9258 48.5419 34.9101 48.6421 34.9097C48.7753 34.9054 48.8857 34.8481 48.9732 34.7377C49.2941 34.333 49.6254 34.2112 49.9671 34.3723C50.1092 34.445 50.2519 34.5232 50.3953 34.6069C50.5497 34.6894 50.7137 34.7595 50.8875 34.8174C51.0614 34.8754 51.2514 34.8813 51.4578 34.8351C51.6751 34.7878 51.8857 34.73 52.0896 34.6619C52.2934 34.5938 52.501 34.5587 52.7124 34.5566C53.244 34.5286 53.6567 34.726 53.9507 35.1489C54.1512 35.4377 54.2491 35.755 54.2445 36.1009C54.2496 36.4346 54.2477 36.7078 54.2388 36.9205C54.23 37.1332 54.2338 37.311 54.2503 37.4539C54.2656 37.5859 54.2696 37.669 54.2624 37.7032C54.2552 37.7375 54.2474 37.7662 54.2389 37.7895C54.2089 37.9155 54.2005 38.0836 54.2136 38.2938C54.2267 38.5039 54.2225 38.6604 54.201 38.7632C54.1312 39.0275 53.9534 39.1761 53.6676 39.2091C53.4807 39.2307 53.3174 39.2162 53.1779 39.1654C52.8988 39.064 52.7036 39.0141 52.5924 39.0158C52.4359 39.0116 52.3213 38.9357 52.2486 38.7881C52.2202 38.7357 52.1919 38.6832 52.1636 38.6308C52.1339 38.5674 52.0946 38.5162 52.0456 38.4773C51.9952 38.4274 51.9381 38.3672 51.8743 38.2966C51.8201 38.2137 51.7174 38.1921 51.566 38.2319C51.2632 38.3114 51.1406 38.5038 51.1981 38.8091L51.3416 39.7619L51.3892 40.1742ZM55.0137 34.2239C55.2691 34.2167 55.4903 34.2023 55.6772 34.1807C55.8738 34.1469 56.1652 34.1132 56.5513 34.0798C57.1927 34.0391 57.6384 33.9431 57.8884 33.7917C58.3953 33.4546 58.8258 33.3714 59.1798 33.5422C59.3439 33.6124 59.4986 33.6503 59.6441 33.6557C59.7896 33.6612 59.9854 33.5718 60.2315 33.3874C60.5034 33.2334 60.7366 33.1786 60.9311 33.223C61.1256 33.2674 61.2726 33.334 61.372 33.4228C61.4713 33.5116 61.5466 33.6811 61.5978 33.9315C61.6587 34.1695 61.6922 34.4108 61.6981 34.6552C61.7151 34.8983 61.7191 35.1263 61.7103 35.339C61.709 35.9073 61.7241 36.2788 61.7554 36.4535C61.7977 36.6268 61.8407 36.8057 61.8842 36.9901C61.9388 37.1732 61.9707 37.3533 61.9801 37.5305C62.0076 37.9618 61.8596 38.224 61.5361 38.3171C61.2981 38.378 61.1158 38.3434 60.9893 38.2131C60.8616 38.0719 60.7491 37.9178 60.6518 37.7508C60.5643 37.5715 60.4738 37.4148 60.3803 37.2808C60.2978 37.1454 60.1932 37.1074 60.0663 37.1666C59.9382 37.2148 59.8722 37.3673 59.8684 37.624C59.8634 37.8697 59.8861 38.1623 59.9364 38.5019C59.9855 38.8304 60.0475 39.1742 60.1224 39.5332C60.196 39.8812 60.2529 40.1811 60.2931 40.4327C60.332 40.6733 60.3716 40.9194 60.4118 41.171C60.463 41.4213 60.5013 41.6564 60.5267 41.8763C60.5813 42.3491 60.5528 42.6811 60.4412 42.8722C60.3853 42.9678 60.3644 43.0761 60.3784 43.197C60.3924 43.3179 60.418 43.4431 60.4552 43.5725C60.5034 43.7006 60.5516 43.8287 60.5998 43.9569C60.6481 44.085 60.683 44.2425 60.7046 44.4294C60.7553 44.8692 60.593 45.1999 60.2175 45.4215C60.0822 45.504 59.963 45.6292 59.8598 45.7971C59.7566 45.965 59.6746 46.0747 59.6137 46.1263C59.5651 46.1877 59.4955 46.2124 59.405 46.2006C59.3268 46.1985 59.2619 46.167 59.2103 46.1061C59.171 46.0549 59.131 45.9983 59.0904 45.9361C59.0041 45.7678 58.8973 45.6631 58.77 45.6221C58.6233 45.6057 58.5214 45.4949 58.4643 45.2898C58.4181 45.0834 58.3807 44.9039 58.3519 44.7513C58.3329 44.5864 58.299 44.3897 58.2504 44.1614C58.2017 43.933 58.1087 43.7544 57.9712 43.6254C57.8338 43.4964 57.7247 43.4199 57.6439 43.3958C57.5618 43.3607 57.5016 43.273 57.4631 43.1326C57.4233 42.9812 57.4055 42.8273 57.4097 42.6708C57.425 42.5131 57.4438 42.3382 57.4661 42.1462C57.5359 41.5923 57.5489 41.0783 57.5053 40.6042C57.4367 39.7208 57.3694 39.1381 57.3034 38.8561C57.1934 38.2894 57.0065 38.0214 56.7426 38.0518C56.6119 38.0781 56.5255 38.1493 56.4832 38.2656C56.4396 38.3709 56.3931 38.4988 56.3437 38.6494C56.2317 39.03 55.9627 39.1613 55.5369 39.0434C55.3863 38.9939 55.2808 38.9003 55.2203 38.7624C55.1708 38.6233 55.1298 38.4609 55.0972 38.2753C55.0744 38.0774 55.0454 37.8746 55.0102 37.667C54.9849 37.4471 54.9229 37.2481 54.8243 37.0701C54.7355 36.8798 54.648 36.7005 54.5617 36.5322C54.4754 36.3639 54.4276 36.1912 54.4183 36.014C54.4089 35.8368 54.4277 35.662 54.4747 35.4894C54.5326 35.3156 54.5355 35.1482 54.4835 34.9871C54.4425 34.8247 54.457 34.6615 54.5272 34.4974C54.6071 34.321 54.7693 34.2299 55.0137 34.2239ZM65.4857 35.4712L65.8356 39.2243C66.0273 40.8845 66.349 41.644 66.8006 41.5027C67.1888 41.391 67.2896 40.6719 67.103 39.3454C67.0573 38.9496 67.0555 38.6935 67.0978 38.5772C67.1498 38.4487 67.1824 38.3446 67.1955 38.2651C67.225 38.0389 67.2024 37.7463 67.1275 37.3872C67.0788 37.1589 67.0004 36.817 66.8921 36.3616C66.7838 35.9062 66.6797 35.4391 66.5798 34.9604C66.4787 34.4707 66.4053 34.028 66.3596 33.6322C66.3139 33.2364 66.3238 32.9846 66.3893 32.8767C66.4658 32.7676 66.5639 32.7006 66.6836 32.6756C66.813 32.6384 66.945 32.6231 67.0794 32.6299C67.2236 32.6244 67.3581 32.6311 67.4829 32.6502C67.6186 32.6679 67.725 32.6723 67.8019 32.6634C67.8899 32.6533 67.9876 32.6309 68.095 32.5962C68.2121 32.5492 68.325 32.5139 68.4337 32.4902C68.5521 32.4542 68.6607 32.4306 68.7597 32.4191C68.8696 32.4064 68.973 32.4335 69.0699 32.5003C69.1667 32.5671 69.2604 32.7512 69.3509 33.0527C69.4525 33.353 69.5383 33.7107 69.6086 34.126C69.6898 34.54 69.7584 34.9888 69.8143 35.4726C69.8689 35.9454 69.9154 36.3968 69.9539 36.8268C70.0192 37.7775 70.0412 38.3543 70.0201 38.5572C70.01 38.759 69.9825 38.907 69.9377 39.0013C69.8929 39.0956 69.8474 39.1844 69.8013 39.2677C69.7092 39.4343 69.7181 39.6561 69.828 39.9331C69.938 40.2101 70.0239 40.423 70.0856 40.5718C70.1943 40.8378 70.2284 41.0845 70.1878 41.312C70.1473 41.5396 70.15 41.7565 70.1962 41.9629C70.3159 42.5172 70.2963 42.9262 70.1373 43.1896C70.0633 43.3207 69.9392 43.452 69.765 43.5836C69.4153 43.8356 69.1696 44.1203 69.028 44.4374C68.9604 44.6235 68.868 44.74 68.7509 44.787C68.6874 44.8166 68.5891 44.8335 68.4559 44.8377C68.3214 44.831 68.1766 44.831 68.0214 44.8378C67.8649 44.8336 67.7146 44.8342 67.5704 44.8397C67.4249 44.8343 67.326 44.8457 67.2736 44.874C67.2198 44.8914 67.1742 44.9301 67.1366 44.9901C67.0977 45.0392 67.0539 45.0944 67.0053 45.1557C66.7427 45.4868 66.431 45.4894 66.0703 45.1634C65.9954 45.0941 65.9212 45.0302 65.8476 44.9719C65.7838 44.9012 65.7224 44.8526 65.6637 44.826C65.6036 44.7884 65.5222 44.7588 65.4194 44.7372C65.3264 44.7034 65.2205 44.6543 65.1016 44.5901C64.5958 44.3588 64.2457 43.9313 64.0511 43.3076C63.9496 43.0074 63.8489 42.6179 63.749 42.1392C63.6479 41.6496 63.5732 41.3407 63.525 41.2125C63.4878 41.0831 63.4053 40.9478 63.2776 40.8066C63.1486 40.6544 63.06 40.5142 63.0118 40.3861C62.9623 40.247 62.9396 40.0992 62.9438 39.9427C62.9481 39.7862 62.9552 39.6071 62.9654 39.4054C62.9924 38.8675 62.961 38.4032 62.8713 38.0125C62.7816 37.6218 62.7351 37.3152 62.7317 37.0927C62.7393 36.869 62.7289 36.731 62.7006 36.6785C62.6709 36.6151 62.6255 36.5591 62.5642 36.5105C62.5138 36.4606 62.4895 36.3464 62.4912 36.1679C62.4929 35.9895 62.4842 35.8178 62.4651 35.6529C62.4461 35.488 62.4264 35.3176 62.4061 35.1416C62.3527 34.3902 62.4161 33.9261 62.5962 33.7493C62.7472 33.6093 62.91 33.5237 63.0846 33.4924C63.3582 33.4496 63.5559 33.3766 63.6777 33.2734C63.8104 33.169 63.9176 33.0842 63.9992 33.0191C64.5134 32.6477 64.8797 32.8282 65.0979 33.5606C65.2392 34.0123 65.3685 34.6491 65.4857 35.4712ZM74.8354 34.9595C74.473 35.1017 74.4752 35.7476 74.842 36.8974C74.9558 37.2073 75.0253 37.4723 75.0507 37.6921C75.0859 37.8998 75.085 38.1338 75.0483 38.3943C75.0115 38.6548 75.002 38.862 75.0198 39.016C75.0376 39.1699 75.0365 39.3538 75.0167 39.5678C75.0543 39.7974 75.0761 40.0344 75.0821 40.2789C75.0978 40.511 75.1128 40.7377 75.1272 40.9588C75.1564 41.5014 75.1878 41.8209 75.2212 41.9173C75.2546 42.0137 75.2952 42.0759 75.343 42.1038C75.4005 42.1194 75.4635 42.1344 75.532 42.1488C75.6923 42.186 75.794 42.2466 75.8371 42.3308C75.8803 42.4149 75.9059 42.5401 75.9139 42.7063C75.9317 42.8602 75.9343 43.027 75.9216 43.2068C75.8709 43.636 75.7646 43.9212 75.6026 44.0625C75.5113 44.1399 75.4094 44.1739 75.2969 44.1646C75.1954 44.1541 75.0829 44.1448 74.9594 44.1368C74.578 44.114 74.263 44.1838 74.0143 44.3462C73.4063 44.7729 72.906 44.8307 72.5136 44.5195C72.3541 44.3931 72.2408 44.1834 72.1735 43.8903C72.0673 43.3567 72.0548 43.0072 72.136 42.8418C72.2281 42.6752 72.3053 42.5716 72.3675 42.531C72.4394 42.4781 72.5009 42.432 72.552 42.3927C72.6666 42.3237 72.7163 42.2233 72.7011 42.0914C72.6896 41.9924 72.6886 41.8867 72.6979 41.7742C72.7169 41.6494 72.7298 41.5198 72.7365 41.3854C72.7547 41.0602 72.6967 40.7995 72.5626 40.6033C72.4138 40.3754 72.3359 40.1838 72.3291 40.0286C72.3334 39.8721 72.334 39.7328 72.331 39.6106L72.3513 39.2072C72.3364 38.8858 72.2998 38.6171 72.2414 38.401C72.1818 38.1739 72.127 37.9407 72.0771 37.7013C72.0369 37.4497 72.0041 37.214 71.9787 36.9941C71.9643 36.7729 71.9457 36.5634 71.9228 36.3655C71.8695 35.9037 71.7883 35.6346 71.6791 35.558C71.581 35.4802 71.4935 35.4458 71.4165 35.4547C71.3383 35.4526 71.2607 35.456 71.1837 35.4648C70.9774 35.511 70.8416 35.4932 70.7765 35.4116C70.6416 35.3046 70.5633 35.1577 70.5418 34.9708C70.5202 34.7839 70.5366 34.6371 70.5912 34.5306C70.6567 34.4227 70.6935 34.3071 70.7015 34.1836C70.7083 34.0491 70.7034 33.9104 70.6869 33.7675C70.6708 33.4351 70.635 33.222 70.5796 33.1281C70.5229 33.0232 70.4792 32.9336 70.4483 32.8592C70.4271 32.7725 70.4121 32.6907 70.4032 32.6137C70.3664 32.2948 70.5727 32.1039 71.0223 32.0408C71.2959 31.9981 71.5768 31.9712 71.8652 31.9602C72.1524 31.9382 72.3765 31.9011 72.5376 31.8491C73.0966 31.6731 73.5478 31.5765 73.8912 31.5591C74.2456 31.5404 74.4741 31.5419 74.5769 31.5635C74.8645 31.6417 75.0478 31.9269 75.1269 32.4191C75.1646 32.6487 75.198 32.89 75.2272 33.1428C75.2564 33.3957 75.2973 33.6528 75.3497 33.9141C75.4572 34.4588 75.2858 34.8073 74.8354 34.9595Z" fill="url(#paint3_linear_25_7)"/>
<defs>
<filter id="filter0_d_25_7" x="8.25515" y="15.5473" width="107.374" height="130.737" filterUnits="userSpaceOnUse" color-interpolation-filters="sRGB">
<feFlood flood-opacity="0" result="BackgroundImageFix"/>
<feColorMatrix in="SourceAlpha" type="matrix" values="0 0 0 0 0 0 0 0 0 0 0 0 0 0 0 0 0 0 127 0" result="hardAlpha"/>
<feOffset dx="5" dy="5"/>
<feGaussianBlur stdDeviation="5"/>
<feComposite in2="hardAlpha" operator="out"/>
<feColorMatrix type="matrix" values="0 0 0 0 0 0 0 0 0 0 0 0 0 0 0 0 0 0 0.25 0"/>
<feBlend mode="normal" in2="BackgroundImageFix" result="effect1_dropShadow_25_7"/>
<feBlend mode="normal" in="SourceGraphic" in2="effect1_dropShadow_25_7" result="shape"/>
</filter>
<linearGradient id="paint0_linear_25_7" x1="-6.02609" y1="-5.10659" x2="106.676" y2="105.136" gradientUnits="userSpaceOnUse">
<stop stop-color="#08528E"/>
<stop offset="1" stop-color="#430762"/>
</linearGradient>
<linearGradient id="paint1_linear_25_7" x1="-10.3867" y1="10.407" x2="128.674" y2="150.428" gradientUnits="userSpaceOnUse">
<stop stop-color="#0DB2FF"/>
<stop offset="1" stop-color="#D500FF"/>
</linearGradient>
<linearGradient id="paint2_linear_25_7" x1="46.0142" y1="3.85282" x2="66.8697" y2="139.256" gradientUnits="userSpaceOnUse">
<stop stop-color="#0DB2FF"/>
<stop offset="1" stop-color="#D500FF"/>
</linearGradient>
<linearGradient id="paint3_linear_25_7" x1="16.669" y1="46.7972" x2="81.5573" y2="22.547" gradientUnits="userSpaceOnUse">
<stop stop-color="#0DB2FF"/>
<stop offset="0.497983" stop-color="#6B5EFF"/>
<stop offset="1" stop-color="#D500FF"/>
</linearGradient>
</defs>
</svg>
